<svg width="1682" height="906" viewBox="0 0 1682 906" fill="none" xmlns="http://www.w3.org/2000/svg">
<g clip-path="url(#clip0_18_39)">
<path fill-rule="evenodd" clip-rule="evenodd" d="M1677.52 0C1679.16 21.451 1680 43.128 1680 65C1680 528.367 1304.37 904 841 904C377.633 904 2 528.367 2 65C2 43.128 2.83695 21.451 4.48058 0H2.47463C0.834922 21.452 0 43.128 0 65C0 529.471 376.529 906 841 906C1305.47 906 1682 529.471 1682 65C1682 43.128 1681.17 21.452 1679.53 0H1677.52Z" fill="white"/>
<path fill-rule="evenodd" clip-rule="evenodd" d="M1512.91 0C1514.95 21.391 1516 43.073 1516 65C1516 437.792 1213.79 740 841 740C468.208 740 166 437.792 166 65C166 43.073 167.045 21.391 169.089 0H167.08C165.042 21.392 164 43.074 164 65C164 438.897 467.103 742 841 742C1214.9 742 1518 438.897 1518 65C1518 43.074 1516.96 21.392 1514.92 0H1512.91Z" fill="white"/>
<path fill-rule="evenodd" clip-rule="evenodd" d="M1343.87 0C1346.6 21.282 1348 42.977 1348 65C1348 345.008 1121.01 572 841 572C560.992 572 334 345.008 334 65C334 42.977 335.404 21.282 338.128 0H336.111C333.398 21.284 332 42.979 332 65C332 346.113 559.887 574 841 574C1122.11 574 1350 346.113 1350 65C1350 42.979 1348.6 21.284 1345.89 0H1343.87Z" fill="white"/>
<path fill-rule="evenodd" clip-rule="evenodd" d="M1017.46 0C1024.92 20.256 1029 42.152 1029 65C1029 168.83 944.83 253 841 253C737.17 253 653 168.83 653 65C653 42.152 657.076 20.256 664.54 0H662.409C655.027 20.278 651 42.169 651 65C651 169.934 736.066 255 841 255C945.934 255 1031 169.934 1031 65C1031 42.169 1026.97 20.278 1019.59 0H1017.46Z" fill="white"/>
<path fill-rule="evenodd" clip-rule="evenodd" d="M1178.87 0C1182.89 21.049 1185 42.778 1185 65C1185 254.986 1030.99 409 841 409C651.014 409 497 254.986 497 65C497 42.778 499.107 21.049 503.132 0H501.096C497.094 21.053 495 42.782 495 65C495 256.091 649.909 411 841 411C1032.09 411 1187 256.091 1187 65C1187 42.782 1184.91 21.053 1180.9 0H1178.87Z" fill="white"/>
</g>
<defs>
<clipPath id="clip0_18_39">
<rect width="1682" height="906" fill="white" transform="matrix(1 0 0 -1 0 906)"/>
</clipPath>
</defs>
</svg>
