<svg width="1346" height="1030" viewBox="0 0 1346 1030" fill="none" xmlns="http://www.w3.org/2000/svg">
<g opacity="0.6">
<path d="M226.655 332.857C240.688 264.84 312.006 221.909 416.062 207.533C520.106 193.159 656.826 207.343 801.561 253.499C946.296 299.654 1071.63 369.039 1157.26 443.9C1242.9 518.771 1288.8 599.08 1274.76 667.097C1260.73 735.113 1189.41 778.044 1085.36 792.42C981.313 806.794 844.592 792.61 699.857 746.455C555.123 700.299 429.79 630.915 344.158 556.053C258.515 481.182 212.623 400.873 226.655 332.857Z" stroke="#678BFF" stroke-width="0.268684"/>
<path d="M220.9 337.425C234.349 269.342 305.392 225.677 409.475 210.168C513.545 194.66 650.595 207.31 795.955 251.803C941.315 296.295 1067.45 364.2 1153.88 438.015C1240.31 511.839 1286.98 591.535 1273.54 659.618C1260.09 727.7 1189.04 771.365 1084.96 786.875C980.89 802.383 843.84 789.732 698.48 745.24C553.12 700.748 426.985 632.842 340.56 559.027C254.125 485.203 207.451 405.507 220.9 337.425Z" stroke="#678BFF" stroke-width="0.268684"/>
<path d="M215.241 342.098C228.107 273.956 298.87 229.56 402.971 212.914C507.06 196.27 644.428 207.381 790.4 250.199C936.372 293.016 1063.3 359.43 1150.51 432.186C1237.73 504.952 1285.17 584.023 1272.31 652.164C1259.44 720.306 1188.68 764.702 1084.58 781.348C980.49 797.992 843.122 786.881 697.15 744.063C551.178 701.246 424.253 634.833 337.044 562.076C249.825 489.31 202.375 410.239 215.241 342.098Z" stroke="#678BFF" stroke-width="0.268684"/>
<path d="M209.679 346.878C221.963 278.684 292.44 233.559 396.551 215.775C500.65 197.992 638.324 207.557 784.894 248.689C931.465 289.821 1059.17 354.729 1147.15 426.416C1235.15 498.111 1283.37 576.546 1271.08 644.739C1258.8 712.932 1188.32 758.058 1084.21 775.842C980.111 793.624 842.438 784.06 695.867 742.928C549.296 701.796 421.592 636.887 333.609 565.201C245.615 493.506 197.395 415.071 209.679 346.878Z" stroke="#678BFF" stroke-width="0.268684"/>
<path d="M204.218 351.76C215.919 283.523 286.106 237.67 390.22 218.745C494.321 199.822 632.288 207.833 779.444 247.269C926.6 286.705 1055.07 350.096 1143.82 420.7C1232.58 491.313 1281.56 569.102 1269.86 637.339C1258.16 705.577 1187.97 751.429 1083.86 770.354C979.757 789.277 841.79 781.266 694.634 741.83C547.478 702.394 419.008 639.003 330.259 568.399C241.5 497.786 192.516 419.998 204.218 351.76Z" stroke="#678BFF" stroke-width="0.268684"/>
<path d="M198.855 356.746C209.975 288.472 279.867 241.895 383.974 221.827C488.068 201.761 626.317 208.212 774.045 245.941C921.773 283.67 1051 345.532 1140.5 415.042C1230.02 484.561 1279.76 561.692 1268.64 629.966C1257.52 698.241 1187.63 744.818 1083.52 764.886C979.425 784.951 841.176 778.501 693.448 740.771C545.72 703.042 416.496 641.181 326.992 571.67C237.476 502.152 187.734 425.021 198.855 356.746Z" stroke="#678BFF" stroke-width="0.268684"/>
<path d="M193.595 361.833C204.135 293.529 273.726 246.229 377.818 225.016C481.898 203.806 620.416 208.69 768.703 244.703C916.989 280.715 1046.95 341.034 1137.21 409.439C1227.47 477.852 1277.96 554.315 1267.42 622.619C1256.88 690.923 1187.29 738.223 1083.2 759.436C979.119 780.646 840.6 775.762 692.313 739.75C544.027 703.737 414.062 643.418 323.811 575.013C233.549 506.6 183.055 430.137 193.595 361.833Z" stroke="#678BFF" stroke-width="0.268684"/>
<path d="M188.437 367.021C198.397 298.694 267.683 250.675 371.752 228.315C475.808 205.958 614.584 209.269 763.415 243.554C912.246 277.839 1042.94 336.604 1133.93 403.892C1224.93 471.188 1276.17 546.972 1266.21 615.299C1256.25 683.625 1186.96 731.645 1082.89 754.005C978.835 776.362 840.059 773.05 691.228 738.765C542.397 704.48 411.704 645.715 320.716 578.428C229.716 511.131 178.477 435.347 188.437 367.021Z" stroke="#678BFF" stroke-width="0.268684"/>
<path d="M183.382 372.307C192.763 303.965 261.74 255.228 365.777 231.72C469.801 208.214 608.823 209.946 758.184 242.494C907.546 275.042 1038.95 332.24 1130.67 398.4C1222.4 464.567 1274.38 539.662 1265 608.004C1255.61 676.346 1186.64 725.083 1082.6 748.591C978.577 772.097 839.555 770.365 690.193 737.817C540.831 705.269 409.423 648.071 317.707 581.911C225.98 515.743 174.001 440.649 183.382 372.307Z" stroke="#678BFF" stroke-width="0.268684"/>
<path d="M178.432 377.691C187.235 309.341 255.897 259.889 359.893 235.23C463.876 210.574 603.132 210.721 753.01 241.522C902.888 272.323 1035 327.942 1127.43 392.962C1219.88 457.991 1272.59 532.386 1263.79 600.735C1254.98 669.085 1186.32 718.537 1082.33 743.196C978.342 767.852 839.087 767.705 689.208 736.904C539.33 706.104 407.219 650.484 314.785 585.464C222.34 520.436 169.629 446.041 178.432 377.691Z" stroke="#678BFF" stroke-width="0.268684"/>
<path d="M173.584 383.171C181.81 314.821 250.153 264.656 354.1 238.845C458.034 213.038 597.511 211.594 747.892 240.637C898.273 269.681 1031.07 323.71 1124.22 387.58C1217.37 451.458 1270.81 525.142 1262.58 593.493C1254.35 661.844 1186.01 712.008 1082.06 737.819C978.13 763.627 838.654 765.071 688.273 736.027C537.892 706.984 405.091 652.954 311.95 589.084C218.796 525.207 165.359 451.522 173.584 383.171Z" stroke="#678BFF" stroke-width="0.268684"/>
<path d="M168.846 388.748C176.495 320.404 244.514 269.529 348.403 242.565C452.28 215.603 591.965 212.562 742.834 239.84C893.704 267.117 1027.18 319.545 1121.02 382.253C1214.87 444.969 1269.03 517.932 1261.38 586.277C1253.73 654.621 1185.71 705.495 1081.82 732.46C977.945 759.421 838.26 762.462 687.391 735.185C536.521 707.908 403.045 655.48 309.205 592.772C215.353 530.056 161.196 457.092 168.846 388.748Z" stroke="#678BFF" stroke-width="0.268684"/>
<path d="M164.212 394.418C167.749 360.253 186.438 330.276 217.225 305.323C248.013 280.369 290.894 260.444 342.799 246.386C446.609 218.269 586.49 213.626 737.834 239.127C889.178 264.628 1023.32 315.443 1117.85 376.979C1165.11 407.747 1202.47 441.192 1227.12 475.487C1251.77 509.782 1263.72 544.921 1260.18 579.086C1256.64 613.251 1237.95 643.228 1207.17 668.181C1176.38 693.135 1133.5 713.06 1081.59 727.118C977.783 755.235 837.902 759.878 686.558 734.377C535.214 708.876 401.075 658.061 306.547 596.525C259.283 565.757 221.927 532.312 197.274 498.017C172.621 463.722 160.674 428.583 164.212 394.418Z" stroke="#678BFF" stroke-width="0.268684"/>
<path d="M159.688 400.181C162.939 366.026 181.4 335.878 212.023 310.607C242.646 285.335 285.425 264.944 337.293 250.308C441.028 221.035 581.093 214.784 732.897 238.5C884.701 262.216 1019.49 311.406 1114.69 371.759C1162.3 401.935 1200 434.899 1224.99 468.859C1249.97 502.818 1262.24 537.766 1258.99 571.921C1255.74 606.076 1237.28 636.224 1206.65 661.495C1176.03 686.767 1133.25 707.157 1081.38 721.794C977.648 751.067 837.584 757.318 685.779 733.602C533.975 709.886 399.187 660.696 303.981 600.343C256.378 570.166 218.677 537.203 193.69 503.243C168.704 469.284 156.438 434.336 159.688 400.181Z" stroke="#678BFF" stroke-width="0.268684"/>
<path d="M155.273 406.035C158.237 371.894 176.471 341.578 206.927 315.99C237.383 290.401 280.057 269.546 331.883 254.33C435.534 223.9 575.77 216.035 728.019 237.957C880.269 259.879 1015.69 307.434 1111.57 366.593C1159.5 396.172 1197.55 428.65 1222.86 462.269C1248.18 495.887 1260.76 530.641 1257.8 564.782C1254.83 598.923 1236.6 629.239 1206.15 654.828C1175.69 680.416 1133.01 701.272 1081.19 716.487C977.538 746.918 837.302 754.782 685.053 732.86C532.803 710.939 397.379 663.384 301.506 604.225C253.569 574.645 215.525 542.168 190.209 508.549C164.893 474.93 152.309 440.177 155.273 406.035Z" stroke="#678BFF" stroke-width="0.268684"/>
<path d="M150.967 411.98C153.645 377.856 171.65 347.374 201.937 321.47C232.225 295.566 274.79 274.246 326.569 258.451C430.128 226.862 570.522 217.379 723.203 237.497C875.883 257.616 1011.93 303.524 1108.46 361.479C1156.72 390.457 1195.11 422.443 1220.75 455.717C1246.39 488.99 1259.29 523.545 1256.61 557.668C1253.93 591.792 1235.93 622.274 1205.64 648.178C1175.35 674.082 1132.79 695.402 1081.01 711.197C977.452 742.786 837.058 752.269 684.377 732.151C531.697 712.032 395.651 666.124 299.12 608.169C250.855 579.191 212.474 547.205 186.831 513.931C161.189 480.658 148.289 446.103 150.967 411.98Z" stroke="#678BFF" stroke-width="0.268684"/>
<path d="M146.773 418.013C149.166 383.91 166.942 353.264 197.058 327.047C227.175 300.829 269.627 279.045 321.356 262.67C424.814 229.92 565.353 218.814 718.45 237.12C871.547 255.427 1008.2 299.678 1105.38 356.419C1153.97 384.789 1192.68 416.278 1218.65 449.202C1244.61 482.126 1257.83 516.477 1255.43 550.58C1253.04 584.683 1235.27 615.329 1205.15 641.546C1175.03 667.764 1132.58 689.548 1080.85 705.923C977.393 738.673 836.854 749.779 683.757 731.473C530.66 713.166 394.006 668.915 296.828 612.174C248.24 583.804 209.526 552.315 183.559 519.39C157.594 486.467 144.38 452.116 146.773 418.013Z" stroke="#678BFF" stroke-width="0.268684"/>
<path d="M142.691 424.134C144.8 390.056 162.345 359.249 192.288 332.719C222.232 306.188 264.569 283.941 316.243 266.985C419.591 233.074 560.263 220.339 713.761 236.825C867.259 253.311 1004.51 295.895 1102.32 351.411C1151.23 379.169 1190.27 410.157 1216.56 442.726C1242.84 475.295 1256.37 509.439 1254.26 543.518C1252.15 577.596 1234.61 608.403 1204.66 634.933C1174.72 661.463 1132.38 683.711 1080.71 700.667C977.36 734.577 836.688 747.312 683.19 730.826C529.691 714.34 392.443 671.757 294.629 616.241C245.722 588.483 206.68 557.495 180.393 524.925C154.108 492.356 140.582 458.212 142.691 424.134Z" stroke="#678BFF" stroke-width="0.268684"/>
<path d="M138.721 430.341C140.547 396.29 157.86 365.325 187.628 338.484C217.397 311.643 259.615 288.932 311.23 271.395C414.459 236.322 555.251 221.954 709.136 236.611C863.021 251.268 1000.85 292.174 1099.29 346.455C1148.51 373.596 1187.87 404.077 1214.48 436.288C1241.08 468.498 1254.92 502.43 1253.09 536.481C1251.27 570.531 1233.95 601.497 1204.18 628.337C1174.41 655.179 1132.2 677.89 1080.58 695.426C977.353 730.499 836.561 744.867 682.676 730.21C528.791 715.553 390.962 674.648 292.523 620.366C243.303 593.226 203.937 562.744 177.334 530.534C150.731 498.324 136.896 464.391 138.721 430.341Z" stroke="#678BFF" stroke-width="0.268684"/>
<path d="M134.866 436.632C136.408 402.613 153.49 371.491 183.081 344.341C212.672 317.19 254.768 294.016 306.319 275.898C409.42 239.663 550.319 223.657 704.576 236.477C858.832 249.297 997.228 288.514 1096.28 341.55C1145.81 368.069 1185.49 398.039 1212.41 429.886C1239.33 461.732 1253.47 495.449 1251.93 529.468C1250.38 563.487 1233.3 594.609 1203.71 621.759C1174.12 648.91 1132.03 672.083 1080.47 690.201C977.373 726.437 836.474 742.443 682.217 729.623C527.96 716.803 389.565 677.586 290.511 624.549C240.984 598.031 201.298 568.061 174.381 536.214C147.465 504.367 133.323 470.651 134.866 436.632Z" stroke="#678BFF" stroke-width="0.268684"/>
<path d="M131.123 443.007C132.383 409.023 149.232 377.747 178.644 350.289C208.056 322.83 250.025 299.195 301.508 280.495C404.473 243.096 545.466 225.448 700.079 236.422C854.693 247.397 993.64 284.916 1093.3 336.698C1143.13 362.589 1183.13 392.042 1210.35 423.522C1237.58 455 1252.03 488.497 1250.77 522.481C1249.51 556.465 1232.66 587.741 1203.25 615.199C1173.83 642.658 1131.86 666.293 1080.38 684.993C977.417 722.392 836.424 740.04 681.811 729.065C527.197 718.091 388.25 680.572 288.592 628.79C238.763 602.899 198.762 573.445 171.536 541.966C144.31 510.488 129.863 476.991 131.123 443.007Z" stroke="#678BFF" stroke-width="0.268684"/>
<path d="M127.497 449.464C128.476 415.518 145.091 384.091 174.321 356.327C203.552 328.562 245.393 304.465 296.803 285.183C399.622 246.619 540.696 227.325 695.651 236.446C850.606 245.568 990.091 281.378 1090.34 331.896C1140.47 357.155 1180.78 386.088 1208.31 417.195C1235.84 448.301 1250.59 481.573 1249.61 515.519C1248.64 549.465 1232.02 580.892 1202.79 608.656C1173.56 636.421 1131.72 660.518 1080.31 679.8C977.489 718.364 836.415 737.658 681.46 728.537C526.505 719.415 387.021 683.605 286.77 633.087C236.644 607.828 196.333 578.895 168.8 547.788C141.267 516.682 126.518 483.41 127.497 449.464Z" stroke="#678BFF" stroke-width="0.268684"/>
<path d="M123.986 456.001C124.684 422.096 141.065 390.521 170.112 362.452C199.159 334.382 240.867 309.824 292.2 289.96C394.866 250.232 536.007 229.286 691.289 236.547C846.57 243.809 986.578 277.901 1087.41 327.145C1137.83 351.767 1178.44 380.174 1206.28 410.904C1234.12 441.633 1249.17 474.678 1248.47 508.582C1247.77 542.486 1231.39 574.061 1202.34 602.131C1173.29 630.201 1131.59 654.758 1080.25 674.622C977.587 714.351 836.446 735.296 681.164 728.035C525.883 720.774 385.875 686.682 285.042 637.438C234.625 612.816 194.009 584.409 166.172 553.679C138.337 522.95 123.287 489.905 123.986 456.001Z" stroke="#678BFF" stroke-width="0.268684"/>
<path d="M120.593 462.617C121.012 428.758 137.157 397.036 166.018 368.664C194.88 340.291 236.452 315.273 287.704 294.826C390.206 253.932 531.403 231.332 686.995 236.725C842.588 242.118 983.104 274.482 1084.51 322.443C1135.21 346.424 1176.13 374.301 1204.26 404.649C1232.4 434.998 1247.75 467.81 1247.33 501.669C1246.91 535.528 1230.76 567.25 1201.9 595.622C1173.04 623.995 1131.47 649.013 1080.22 669.46C977.713 710.354 836.517 732.954 680.924 727.561C525.332 722.168 384.815 689.804 283.412 641.843C232.71 617.862 191.792 589.985 163.656 559.636C135.522 529.288 120.174 496.476 120.593 462.617Z" stroke="#678BFF" stroke-width="0.268684"/>
<path d="M117.318 469.31C117.458 435.5 133.368 403.635 162.042 374.961C190.716 346.286 232.149 320.809 283.314 299.779C385.645 257.72 526.883 233.461 682.771 236.979C838.659 240.496 979.669 271.123 1081.63 317.792C1132.61 341.126 1173.83 368.468 1202.26 398.431C1230.69 428.394 1246.33 460.971 1246.19 494.781C1246.05 528.592 1230.14 560.457 1201.47 589.131C1172.8 617.806 1131.36 643.283 1080.2 664.313C977.867 706.372 836.629 730.63 680.741 727.113C524.852 723.596 383.842 692.968 281.879 646.3C230.897 622.965 189.684 595.623 161.252 565.66C132.821 535.697 117.178 503.121 117.318 469.31Z" stroke="#678BFF" stroke-width="0.268684"/>
<path d="M114.161 476.08C114.023 442.322 129.696 410.316 158.18 381.341C186.665 352.367 227.955 326.431 279.03 304.818C381.18 261.593 522.445 235.672 678.614 237.307C834.782 238.942 976.272 267.823 1078.78 313.19C1130.04 335.874 1171.54 362.676 1200.27 392.25C1228.99 421.823 1244.93 454.16 1245.06 487.918C1245.2 521.677 1229.53 553.683 1201.04 582.657C1172.56 611.631 1131.27 637.567 1080.2 659.18C978.046 702.405 836.78 728.326 680.611 726.691C524.443 725.056 382.953 696.175 280.442 650.808C229.186 628.124 187.681 601.322 158.957 571.748C130.234 542.175 114.298 509.838 114.161 476.08Z" stroke="#678BFF" stroke-width="0.268684"/>
<path d="M111.124 482.925C110.71 449.222 126.146 417.077 154.438 387.805C182.731 358.531 223.875 332.138 274.855 309.942C376.815 265.552 518.096 237.965 674.529 237.71C830.962 237.455 972.916 264.581 1075.96 308.637C1127.49 330.666 1169.28 356.924 1198.29 386.104C1227.3 415.283 1243.53 447.376 1243.94 481.08C1244.36 514.783 1228.92 546.927 1200.63 576.2C1172.34 605.473 1131.19 631.867 1080.21 654.062C978.254 698.453 836.973 726.04 680.54 726.294C524.107 726.549 382.153 699.424 279.105 655.367C227.581 633.339 185.789 607.08 156.777 577.9C127.766 548.721 111.539 516.628 111.124 482.925Z" stroke="#678BFF" stroke-width="0.268684"/>
<path d="M108.208 489.843C107.517 456.198 122.715 423.918 150.814 394.349C178.914 364.779 219.908 337.928 270.789 315.15C372.55 269.593 513.832 240.337 670.514 238.186C827.196 236.035 969.599 261.396 1073.17 304.134C1124.96 325.502 1167.03 351.213 1196.33 379.994C1225.63 408.776 1242.14 440.621 1242.83 474.265C1243.52 507.91 1228.32 540.191 1200.22 569.76C1172.13 599.329 1131.13 626.18 1080.25 648.959C978.489 694.515 837.207 723.771 680.525 725.922C523.843 728.074 381.44 702.712 277.867 659.975C226.08 638.606 184.007 612.896 154.709 584.114C125.413 555.333 108.898 523.487 108.208 489.843Z" stroke="#678BFF" stroke-width="0.268684"/>
<path d="M105.413 496.832C104.447 463.25 119.407 430.835 147.31 400.971C175.214 371.107 216.055 343.8 266.832 320.438C368.385 273.716 509.656 242.787 666.571 238.733C823.486 234.679 966.324 258.268 1070.41 299.678C1122.45 320.382 1164.8 345.54 1194.38 373.92C1223.96 402.299 1240.76 433.892 1241.73 467.475C1242.69 501.057 1227.73 533.472 1199.83 563.336C1171.92 593.2 1131.08 620.507 1080.31 643.869C978.753 690.591 837.483 721.52 680.568 725.574C523.652 729.628 380.815 706.039 276.728 664.63C224.684 643.925 182.334 618.767 152.756 590.387C123.179 562.008 106.379 530.415 105.413 496.832Z" stroke="#678BFF" stroke-width="0.268684"/>
<path d="M102.738 503.892C101.498 470.375 116.219 437.83 143.924 407.672C171.63 377.514 212.315 349.752 262.984 325.808C364.32 277.92 505.565 245.316 662.698 239.353C819.831 233.389 963.088 255.197 1067.68 295.27C1119.97 315.306 1162.59 339.907 1192.45 367.881C1222.3 395.853 1239.39 427.192 1240.63 460.709C1241.86 494.226 1227.14 526.771 1199.44 556.929C1171.73 587.087 1131.05 614.849 1080.38 638.793C979.043 686.681 837.798 719.285 680.665 725.249C523.532 731.212 380.276 709.405 275.687 669.331C223.392 649.295 180.771 624.694 150.915 596.721C121.06 568.748 103.977 537.409 102.738 503.892Z" stroke="#678BFF" stroke-width="0.268684"/>
<path d="M100.187 511.02C98.6746 477.572 113.156 444.898 140.661 414.449C168.168 384 208.693 355.783 259.248 331.256C360.359 282.203 501.565 247.92 658.899 240.041C816.234 232.163 959.895 252.181 1064.97 290.909C1117.51 310.273 1160.4 334.313 1190.53 361.876C1220.66 389.439 1238.02 420.518 1239.53 453.966C1241.05 487.415 1226.57 520.089 1199.06 550.538C1171.55 580.987 1131.03 609.204 1080.47 633.731C979.363 682.784 838.157 717.067 680.822 724.945C523.488 732.824 379.827 712.806 274.748 674.078C222.208 654.714 179.32 630.674 149.191 603.111C119.062 575.548 101.699 544.469 100.187 511.02Z" stroke="#678BFF" stroke-width="0.268684"/>
<path d="M97.7598 518.216C95.9758 484.839 110.216 452.039 137.521 421.301C164.825 390.561 205.187 361.891 255.625 336.782C356.501 286.564 497.654 250.6 655.174 240.8C812.695 230.999 956.744 249.22 1062.3 286.595C1115.08 305.283 1158.23 328.757 1188.63 355.906C1219.03 383.055 1236.67 413.871 1238.45 447.248C1240.24 480.624 1226 513.424 1198.69 544.163C1171.39 574.902 1131.02 603.572 1080.59 628.681C979.711 678.9 838.557 714.864 681.037 724.664C523.517 734.464 379.467 716.244 273.91 678.869C221.131 660.181 177.982 636.707 147.583 609.557C117.185 582.409 99.5438 551.592 97.7598 518.216Z" stroke="#678BFF" stroke-width="0.268684"/>
<path d="M95.4548 525.477C93.4001 492.176 107.4 459.252 134.5 428.226C161.601 397.199 201.797 368.076 252.113 342.385C352.744 291.002 493.832 253.354 651.522 241.627C809.211 229.899 953.634 246.314 1059.66 282.328C1112.67 300.335 1156.08 323.24 1186.74 349.971C1217.4 376.702 1235.32 407.252 1237.38 440.553C1239.43 473.854 1225.43 506.778 1198.33 537.805C1171.23 568.832 1131.03 597.954 1080.72 623.646C980.085 675.029 838.998 712.677 681.308 724.404C523.618 736.131 379.196 719.716 273.172 683.702C220.16 665.695 176.754 642.79 146.089 616.059C115.425 589.328 97.5094 558.779 95.4548 525.477Z" stroke="#678BFF" stroke-width="0.268684"/>
<path d="M93.2766 532.802C90.9524 499.579 104.711 466.535 131.606 435.222C158.501 403.909 198.527 374.335 248.716 348.061C349.095 295.515 490.102 256.18 647.945 242.52C805.789 228.86 950.569 243.462 1057.05 278.107C1110.29 295.429 1153.94 317.761 1184.87 344.07C1215.8 370.379 1233.98 400.659 1236.31 433.882C1238.63 467.104 1224.87 500.149 1197.98 531.462C1171.08 562.775 1131.06 592.349 1080.87 618.622C980.49 671.169 839.483 710.503 681.64 724.164C523.796 737.824 379.016 723.222 272.538 688.577C219.298 671.255 175.641 648.923 144.715 622.614C113.789 596.305 95.6007 566.025 93.2766 532.802Z" stroke="#678BFF" stroke-width="0.268684"/>
<path d="M91.2235 540.19C88.6309 507.049 102.147 473.886 128.834 442.288C155.522 410.691 195.375 380.667 245.433 353.812C345.55 300.102 486.463 259.079 644.444 243.48C802.425 227.882 947.548 240.663 1054.47 273.931C1107.93 290.565 1151.83 312.319 1183.02 338.203C1214.2 364.086 1232.66 394.092 1235.25 427.233C1237.84 460.375 1224.33 493.537 1197.64 525.135C1170.95 556.733 1131.1 586.756 1081.04 613.612C980.924 667.322 840.01 708.345 682.029 723.943C524.049 739.541 378.926 726.76 272.005 693.492C218.545 676.858 174.642 655.104 143.458 629.22C112.274 603.337 93.816 573.331 91.2235 540.19Z" stroke="#678BFF" stroke-width="0.268684"/>
<path d="M89.2949 547.639C86.4352 514.582 99.709 481.304 126.187 449.424C152.665 417.543 192.341 387.07 242.264 359.634C342.109 304.761 482.915 262.048 641.017 244.506C799.119 226.964 944.568 237.917 1051.92 269.801C1105.59 285.743 1149.74 306.916 1181.18 332.37C1212.61 357.824 1231.34 387.553 1234.2 420.609C1237.06 453.665 1223.78 486.944 1197.31 518.824C1170.83 550.704 1131.15 581.177 1081.23 608.614C981.384 663.486 840.578 706.2 682.476 723.742C524.374 741.283 378.925 730.331 271.575 698.447C217.899 682.505 173.755 661.332 142.317 635.878C110.879 610.423 92.1546 580.695 89.2949 547.639Z" stroke="#678BFF" stroke-width="0.268684"/>
<path d="M87.4951 555.147C84.3695 522.178 97.4002 488.786 123.666 456.626C149.933 424.464 189.429 393.544 239.212 365.526C338.777 309.492 479.462 265.086 637.669 245.596C795.875 226.106 941.636 235.223 1049.4 265.715C1103.29 280.961 1147.67 301.549 1179.36 326.571C1211.04 351.592 1230.03 381.039 1233.16 414.007C1236.28 446.975 1223.25 480.368 1196.99 512.528C1170.72 544.689 1131.22 575.61 1081.44 603.627C981.876 659.662 841.19 704.068 682.984 723.558C524.777 743.048 379.017 733.93 271.249 703.439C217.365 688.193 172.985 667.605 141.297 642.583C109.609 617.562 90.6208 588.115 87.4951 555.147Z" stroke="#678BFF" stroke-width="0.268684"/>
<path d="M85.8232 562.712C82.4329 529.835 95.22 496.332 121.273 463.893C147.326 431.453 186.639 400.085 236.277 371.488C335.552 314.293 476.103 268.193 634.398 246.749C792.693 225.306 938.748 232.581 1046.92 261.674C1101.01 276.22 1145.62 296.219 1177.55 320.804C1209.49 345.389 1228.74 374.552 1232.13 407.428C1235.52 440.305 1222.73 473.808 1196.68 506.248C1170.62 538.688 1131.31 570.055 1081.67 598.653C982.397 655.848 841.846 701.948 683.551 723.391C525.256 744.835 379.201 737.559 271.027 708.467C216.94 693.92 172.331 673.921 140.397 649.337C108.463 624.752 89.2136 595.589 85.8232 562.712Z" stroke="#678BFF" stroke-width="0.268684"/>
<path d="M84.2787 570.334C80.6249 537.552 93.168 503.941 119.006 471.224C144.844 438.507 183.97 406.694 233.458 377.517C332.435 319.163 472.837 271.366 631.204 247.965C789.571 224.564 935.905 229.99 1044.47 257.677C1098.76 271.52 1143.59 290.926 1175.77 315.071C1207.94 339.215 1227.45 368.09 1231.1 400.873C1234.76 433.655 1222.21 467.267 1196.38 499.983C1170.54 532.7 1131.41 564.513 1081.92 593.69C982.946 652.045 842.544 699.841 684.177 723.242C525.81 746.644 379.476 741.217 270.91 713.531C216.626 699.687 171.791 680.281 139.616 656.136C107.44 631.992 87.9326 603.117 84.2787 570.334Z" stroke="#678BFF" stroke-width="0.268684"/>
<path d="M82.8615 578.011C78.9455 545.326 91.2443 511.609 116.865 478.617C142.485 445.625 181.421 413.368 230.756 383.612C329.425 324.099 469.664 274.605 628.087 249.242C786.509 223.879 933.107 227.45 1042.05 253.723C1096.53 266.859 1141.58 285.67 1174 309.371C1206.41 333.071 1226.17 361.655 1230.09 394.34C1234 427.025 1221.7 460.742 1196.08 493.734C1170.46 526.726 1131.53 558.983 1082.19 588.739C983.524 648.252 843.284 697.746 684.862 723.109C526.439 748.473 379.842 744.901 270.895 718.628C216.421 705.492 171.367 686.681 138.953 662.98C106.541 639.28 86.7776 610.696 82.8615 578.011Z" stroke="#678BFF" stroke-width="0.268684"/>
<path d="M81.5754 585.74C77.3985 553.156 89.4524 519.336 114.854 486.071C140.255 452.805 178.998 420.105 228.174 389.771C326.526 329.101 466.589 277.909 625.051 250.579C783.512 223.249 930.356 224.959 1039.67 249.811C1094.33 262.238 1139.6 280.448 1172.24 303.702C1204.89 326.956 1224.91 355.245 1229.08 387.829C1233.26 420.413 1221.21 454.234 1195.8 487.498C1170.4 520.764 1131.66 553.464 1082.48 583.799C984.132 644.468 844.069 695.661 685.608 722.991C527.146 750.321 380.302 748.611 270.987 723.758C216.329 711.332 171.061 693.121 138.414 669.867C105.768 646.614 85.7523 618.325 81.5754 585.74Z" stroke="#678BFF" stroke-width="0.268684"/>
<path d="M80.4194 593.521C75.983 561.04 87.7916 527.119 112.972 493.583C138.152 460.046 176.698 426.905 225.711 395.992C323.737 334.168 463.61 281.275 622.094 251.975C780.577 222.674 927.653 222.516 1037.32 245.942C1092.16 257.655 1137.64 275.263 1170.51 298.066C1203.39 320.869 1223.65 348.86 1228.09 381.341C1232.52 413.821 1220.72 447.742 1195.54 481.278C1170.36 514.815 1131.81 547.956 1082.8 578.869C984.77 640.694 844.898 693.586 686.414 722.887C527.93 752.187 380.855 752.345 271.185 728.919C216.349 717.206 170.872 699.598 137.996 676.795C105.121 653.992 84.8559 626.001 80.4194 593.521Z" stroke="#678BFF" stroke-width="0.268684"/>
<path d="M79.3929 601.351C74.6983 568.977 86.2612 534.959 111.219 501.153C136.176 467.347 174.521 433.765 223.367 402.276C321.058 339.297 460.726 284.704 619.216 253.429C777.705 222.155 924.995 220.123 1035.01 242.116C1090.01 253.112 1135.7 270.113 1168.8 292.462C1201.9 314.811 1222.41 342.501 1227.1 374.875C1231.8 407.249 1220.23 441.268 1195.28 475.073C1170.32 508.879 1131.97 542.461 1083.13 573.95C985.437 636.929 845.769 691.522 687.28 722.797C528.79 754.071 381.5 756.103 271.487 734.11C216.481 723.114 170.8 706.113 137.699 683.764C104.599 661.415 84.0875 633.725 79.3929 601.351Z" stroke="#678BFF" stroke-width="0.268684"/>
<path d="M78.4984 609.229C73.547 576.965 84.8639 542.851 109.596 508.778C134.329 474.705 172.471 440.684 221.145 408.619C318.491 344.488 457.941 288.193 616.419 254.94C774.897 221.688 922.386 217.777 1032.73 238.33C1087.9 248.606 1133.78 264.998 1167.1 286.89C1200.42 308.782 1221.18 336.167 1226.13 368.431C1231.08 400.695 1219.76 434.809 1195.03 468.882C1170.3 502.955 1132.15 536.976 1083.48 569.041C986.135 633.172 846.685 689.467 688.207 722.719C529.729 755.972 382.24 759.883 271.897 739.33C216.726 729.053 170.847 712.662 137.526 690.77C104.205 668.878 83.4498 641.493 78.4984 609.229Z" stroke="#678BFF" stroke-width="0.268684"/>
<path d="M77.7342 617.154C72.5274 585.003 83.5979 550.795 108.104 516.457C132.61 482.119 170.545 447.661 219.042 415.02C316.035 349.739 455.252 291.741 613.702 256.508C772.153 221.274 919.823 215.478 1030.48 234.586C1085.81 244.139 1131.88 259.917 1165.42 281.349C1198.96 302.78 1219.95 329.858 1225.16 362.009C1230.37 394.16 1219.3 428.367 1194.79 462.705C1170.29 497.044 1132.35 531.502 1083.85 564.143C986.861 629.424 847.644 687.421 689.193 722.655C530.743 757.888 383.072 763.684 272.412 744.577C217.082 735.023 171.012 719.245 137.474 697.814C103.936 676.382 82.9409 649.305 77.7342 617.154Z" stroke="#678BFF" stroke-width="0.268684"/>
<path d="M77.106 625.122C71.6453 593.087 82.4691 558.789 106.746 524.188C131.024 489.586 168.749 454.692 217.064 421.477C313.695 355.047 452.665 295.347 611.071 258.129C769.476 220.912 917.313 213.225 1028.28 230.881C1083.76 239.708 1130.02 254.87 1163.77 275.838C1197.52 296.806 1218.75 323.572 1224.21 355.608C1229.67 387.643 1218.85 421.941 1194.57 456.542C1170.29 491.144 1132.57 526.038 1084.25 559.253C987.62 625.683 848.65 685.383 690.244 722.601C531.839 759.818 384.002 767.504 273.039 749.849C217.556 741.022 171.299 725.86 137.549 704.892C103.8 683.924 82.5667 657.158 77.106 625.122Z" stroke="#678BFF" stroke-width="0.268684"/>
<path d="M76.6069 633.135C70.8937 601.219 81.4703 566.833 105.517 531.97C129.565 497.107 167.076 461.779 215.206 427.991C311.464 360.414 450.174 299.011 608.518 259.806C766.862 220.601 914.848 211.019 1026.1 227.217C1081.73 235.316 1128.17 249.858 1162.13 270.36C1196.08 290.86 1217.55 317.313 1223.26 349.229C1228.98 381.145 1218.4 415.531 1194.35 450.394C1170.31 485.257 1132.79 520.585 1084.67 554.373C988.406 621.95 849.697 683.353 691.353 722.558C533.009 761.763 385.023 771.345 273.768 755.147C218.14 747.048 171.702 732.506 137.745 712.005C103.787 691.504 82.3201 665.051 76.6069 633.135Z" stroke="#678BFF" stroke-width="0.268684"/>
<path d="M76.2433 641.188C70.2791 609.394 80.6083 574.922 104.423 539.8C128.239 504.678 165.533 468.918 213.472 434.557C309.35 365.835 447.784 302.729 606.05 261.534C764.315 220.339 912.434 208.858 1023.97 223.592C1079.73 230.959 1126.35 244.879 1160.51 264.911C1194.67 284.942 1216.37 311.077 1222.33 342.871C1228.3 374.666 1217.97 409.137 1194.15 444.259C1170.34 479.381 1133.04 515.142 1085.1 549.503C989.225 618.224 850.79 681.33 692.525 722.525C534.259 763.72 386.141 775.202 274.608 760.468C218.841 753.1 172.228 739.18 138.066 719.149C103.906 699.118 82.2075 672.983 76.2433 641.188Z" stroke="#678BFF" stroke-width="0.268684"/>
<path d="M76.0136 649.281C69.7999 617.611 79.8814 583.057 103.462 547.678C127.044 512.298 164.117 476.107 211.862 441.175C307.349 371.311 445.495 306.502 603.665 263.314C761.835 220.127 910.069 206.74 1021.87 220.006C1077.77 226.638 1124.55 239.933 1158.91 259.492C1193.27 279.05 1215.2 304.865 1221.41 336.535C1227.62 368.205 1217.54 402.759 1193.96 438.138C1170.38 473.517 1133.31 509.709 1085.56 544.641C990.074 614.505 851.928 679.313 693.758 722.501C535.588 765.689 387.354 779.075 275.556 765.81C219.657 759.177 172.873 745.882 138.513 726.324C104.153 706.765 82.2273 680.951 76.0136 649.281Z" stroke="#678BFF" stroke-width="0.268684"/>
<path d="M75.9159 657.412C69.4543 625.87 79.2878 591.236 102.633 555.602C125.979 519.967 162.829 483.346 210.373 447.844C305.462 376.84 443.304 310.329 601.361 265.146C759.419 219.963 907.753 204.668 1019.8 216.459C1075.83 222.355 1122.77 235.021 1157.33 254.104C1191.88 273.187 1214.04 298.678 1220.5 330.22C1226.96 361.762 1217.12 396.397 1193.78 432.031C1170.43 467.665 1133.58 504.286 1086.04 539.789C990.951 610.793 853.109 677.304 695.051 722.487C536.994 767.669 388.66 782.965 276.61 771.174C220.585 765.278 173.638 752.611 139.083 733.529C104.529 714.446 82.3776 688.954 75.9159 657.412Z" stroke="#678BFF" stroke-width="0.268684"/>
<path d="M75.9549 665.579C69.2468 634.167 78.8322 599.455 101.94 563.568C125.048 527.681 161.671 490.632 209.011 454.561C303.691 382.419 441.216 314.206 599.144 267.026C757.072 219.846 905.488 202.637 1017.78 212.949C1073.92 218.105 1121.03 230.141 1155.77 248.745C1190.52 267.349 1212.89 292.514 1219.6 323.926C1226.31 355.337 1216.72 390.05 1193.61 425.937C1170.5 461.824 1133.88 498.873 1086.54 534.944C991.86 607.086 854.336 675.299 696.408 722.479C538.48 769.658 390.063 786.867 277.775 776.556C221.63 771.4 174.525 759.364 139.78 740.76C105.036 722.156 82.663 696.991 75.9549 665.579Z" stroke="#678BFF" stroke-width="0.268684"/>
<path d="M76.1279 673.781C69.1749 642.502 78.5118 607.715 101.38 571.577C124.249 535.439 160.642 497.964 207.773 461.325C302.036 388.048 439.229 318.133 597.01 268.955C754.791 219.776 903.274 200.65 1015.79 209.477C1072.04 213.891 1119.3 225.293 1154.23 243.415C1189.16 261.538 1211.75 286.374 1218.71 317.652C1225.66 348.931 1216.32 383.718 1193.45 419.856C1170.59 455.994 1134.19 493.469 1087.06 530.108C992.799 603.385 855.606 673.3 697.825 722.478C540.044 771.657 391.561 790.783 279.048 781.956C222.79 777.542 175.532 766.14 140.602 748.018C105.672 729.895 83.0808 705.059 76.1279 673.781Z" stroke="#678BFF" stroke-width="0.268684"/>
<path d="M76.4379 682.015C69.2417 650.873 78.3299 616.012 100.957 579.626C123.585 543.239 159.744 505.34 206.662 468.135C300.498 393.726 437.345 322.11 594.962 270.931C752.579 219.752 901.111 198.704 1013.84 206.042C1070.2 209.711 1117.61 220.477 1152.72 238.115C1187.83 255.753 1210.63 280.258 1217.83 311.4C1225.03 342.541 1215.94 377.402 1193.31 413.788C1170.68 450.175 1134.52 488.074 1087.61 525.279C993.77 599.689 856.923 671.305 699.306 722.484C541.689 773.663 393.157 794.711 280.431 787.372C224.067 783.703 176.663 772.938 141.551 755.299C106.44 737.661 83.6341 713.157 76.4379 682.015Z" stroke="#678BFF" stroke-width="0.268684"/>
<path d="M76.8843 690.28C69.4465 659.277 78.2857 624.346 100.67 587.713C123.055 551.08 158.977 512.759 205.678 474.989C299.077 399.449 435.564 326.133 593 272.952C750.436 219.771 899.001 196.798 1011.93 202.643C1068.39 205.565 1115.93 215.692 1151.22 232.843C1186.51 249.994 1209.53 274.164 1216.97 305.167C1224.4 336.17 1215.56 371.1 1193.18 407.733C1170.79 444.366 1134.87 482.688 1088.17 520.458C994.772 595.997 858.285 669.313 700.849 722.494C543.413 775.675 394.849 798.648 281.924 792.804C225.461 789.881 177.916 779.755 142.628 762.603C107.34 745.452 84.3222 721.283 76.8843 690.28Z" stroke="#678BFF" stroke-width="0.268684"/>
<path d="M77.4654 698.574C69.7876 667.712 78.3778 632.714 100.518 595.837C122.658 558.96 158.34 520.218 204.818 481.884C297.773 405.217 433.885 330.203 591.123 275.019C748.36 219.834 896.94 194.933 1010.05 199.279C1066.61 201.452 1114.29 210.937 1149.75 227.599C1185.21 244.261 1208.43 268.093 1216.11 298.954C1223.79 329.815 1215.2 364.814 1193.06 401.691C1170.92 438.568 1135.24 477.31 1088.76 515.644C995.803 592.31 859.691 667.325 702.453 722.509C545.215 777.693 396.635 802.595 283.525 798.248C226.97 796.075 179.29 786.59 143.83 769.928C108.37 753.267 85.1433 729.435 77.4654 698.574Z" stroke="#678BFF" stroke-width="0.268684"/>
<path d="M78.187 706.896C70.2708 676.179 78.6117 641.116 100.505 603.996C122.399 566.877 157.838 527.717 204.089 488.821C296.589 411.03 432.313 334.318 589.335 277.13C746.357 219.941 894.935 193.108 1008.22 195.952C1064.86 197.374 1112.67 206.215 1148.3 222.384C1183.92 238.554 1207.35 262.046 1215.27 292.762C1223.19 323.479 1214.85 358.542 1192.95 395.661C1171.06 432.781 1135.62 471.941 1089.37 510.837C996.868 588.628 861.145 665.34 704.123 722.528C547.101 779.717 398.522 806.55 285.241 803.706C228.599 802.284 180.79 793.443 145.162 777.274C109.535 761.104 86.1032 737.612 78.187 706.896Z" stroke="#678BFF" stroke-width="0.268684"/>
<path d="M79.0424 715.243C70.8895 684.674 78.981 649.547 100.627 612.188C122.272 574.829 157.465 535.252 203.484 495.795C295.521 416.883 430.841 338.476 587.631 279.282C744.42 220.088 892.98 191.321 1006.42 192.658C1063.14 193.327 1111.07 201.521 1146.86 217.196C1182.65 232.871 1206.29 256.02 1214.44 286.589C1222.59 317.158 1214.5 352.284 1192.86 389.644C1171.21 427.003 1136.02 466.58 1090 506.036C997.961 584.948 862.641 663.356 705.851 722.55C549.062 781.743 400.502 810.511 287.063 809.174C230.342 808.505 182.409 800.311 146.619 784.636C110.829 768.961 87.1953 745.812 79.0424 715.243Z" stroke="#678BFF" stroke-width="0.268684"/>
<path d="M80.0372 723.614C71.6493 693.195 79.4913 658.009 100.887 620.412C122.283 582.815 157.225 542.823 203.008 502.808C294.573 422.778 429.476 342.676 586.015 281.476C742.554 220.277 891.078 189.573 1004.66 189.399C1061.46 189.312 1109.51 196.858 1145.45 212.036C1181.4 227.214 1205.23 250.017 1213.62 280.436C1222.01 310.855 1214.17 346.041 1192.77 383.638C1171.38 421.235 1136.43 461.227 1090.65 501.242C999.087 581.272 864.184 661.374 707.645 722.574C551.106 783.773 402.581 814.477 288.997 814.651C232.204 814.738 184.154 807.192 148.205 792.014C112.257 776.836 88.425 754.033 80.0372 723.614Z" stroke="#678BFF" stroke-width="0.268684"/>
<path d="M81.1704 732.007C72.5493 701.74 80.1415 666.497 101.286 628.664C122.431 590.832 157.12 550.427 202.661 509.855C293.745 428.71 428.216 346.916 584.488 283.711C740.759 220.505 889.231 187.861 1002.95 186.173C1059.8 185.329 1107.97 192.224 1144.07 206.903C1180.17 221.581 1204.2 244.036 1212.82 274.302C1221.44 304.569 1213.85 339.812 1192.7 377.645C1171.56 415.477 1136.87 455.882 1091.33 496.454C1000.24 577.599 865.772 659.393 709.501 722.599C553.23 785.804 404.758 818.448 291.042 820.136C234.184 820.98 186.022 814.085 149.921 799.406C113.819 784.728 89.7915 762.273 81.1704 732.007Z" stroke="#678BFF" stroke-width="0.268684"/>
<path d="M82.44 740.42C73.5874 710.309 80.9298 675.011 101.821 636.945C122.713 598.88 157.145 558.064 202.442 516.936C293.034 434.68 427.06 351.195 583.046 285.984C739.033 220.773 887.435 186.186 1001.27 182.98C1058.18 181.377 1106.45 187.62 1142.7 201.796C1178.95 215.973 1203.17 238.077 1212.02 268.188C1220.88 298.299 1213.53 333.598 1192.64 371.663C1171.75 409.728 1137.32 450.544 1092.02 491.672C1001.43 573.928 867.405 657.413 711.418 722.624C555.432 787.836 407.03 822.422 293.197 825.628C236.28 827.231 188.013 820.988 151.762 806.812C115.511 792.635 91.2926 770.531 82.44 740.42Z" stroke="#678BFF" stroke-width="0.268684"/>
<path d="M83.8502 748.852C74.7679 718.899 81.8604 683.548 102.497 645.252C123.134 606.956 157.306 565.731 202.353 524.049C292.446 440.686 426.011 355.513 581.695 288.295C737.38 221.078 885.694 184.547 999.631 179.82C1056.6 177.456 1104.97 183.044 1141.36 196.716C1177.76 210.389 1202.16 232.14 1211.25 262.093C1220.33 292.046 1213.24 327.397 1192.6 365.693C1171.96 403.989 1137.79 445.213 1092.74 486.895C1002.65 570.259 869.085 655.432 713.401 722.649C557.716 789.867 409.402 826.397 295.465 831.125C238.496 833.488 190.129 827.901 153.735 814.229C117.34 800.556 92.9326 778.805 83.8502 748.852Z" stroke="#678BFF" stroke-width="0.268684"/>
<path d="M85.398 757.301C76.0877 727.508 82.9303 692.107 103.311 653.582C123.691 615.058 157.6 573.427 202.393 531.193C291.976 446.725 425.067 359.866 580.431 290.643C735.796 221.42 884.006 182.943 998.033 176.692C1055.05 173.566 1103.51 178.496 1140.04 191.662C1176.58 204.828 1201.17 226.224 1210.48 256.016C1219.79 285.808 1212.95 321.209 1192.57 359.734C1172.18 398.259 1138.28 439.89 1093.48 482.124C1003.9 566.591 870.809 653.45 715.444 722.673C560.08 791.897 411.869 830.373 297.843 836.625C240.829 839.751 192.368 834.82 155.835 821.654C119.3 808.488 94.7083 787.093 85.398 757.301Z" stroke="#678BFF" stroke-width="0.268684"/>
<path d="M87.0864 765.764C77.5499 736.135 84.1424 700.687 104.265 661.936C124.387 623.185 158.03 581.15 202.564 538.365C291.629 452.797 424.231 364.255 579.258 293.027C734.286 221.798 882.375 181.374 996.478 173.594C1053.53 169.705 1102.08 173.977 1138.75 186.634C1175.41 199.292 1200.19 220.329 1209.72 249.958C1219.26 279.587 1212.67 315.036 1192.55 353.787C1172.42 392.537 1138.78 434.573 1094.25 477.357C1005.18 562.925 872.58 651.467 717.553 722.696C562.525 793.924 414.436 834.348 300.333 842.128C243.281 846.018 194.733 841.746 158.065 829.088C121.396 816.431 96.6229 795.393 87.0864 765.764Z" stroke="#678BFF" stroke-width="0.268684"/>
<path d="M88.9143 774.241C79.1535 744.778 85.496 709.284 105.359 670.309C125.221 631.335 158.595 588.897 202.865 545.565C291.403 458.9 423.502 368.678 578.174 295.444C732.847 222.211 880.797 179.838 994.963 170.528C1052.05 165.873 1100.68 169.485 1137.47 181.632C1174.27 193.779 1199.22 214.456 1208.98 243.919C1218.75 273.382 1212.4 308.876 1192.54 347.851C1172.68 386.825 1139.3 429.263 1095.03 472.595C1006.5 559.26 874.397 649.482 719.724 722.716C565.052 795.949 417.101 838.322 302.936 847.632C245.853 852.287 197.223 848.675 160.425 836.528C123.626 824.381 98.6752 803.704 88.9143 774.241Z" stroke="#678BFF" stroke-width="0.268684"/>
<path d="M90.8822 782.729C80.8988 753.434 86.9913 717.898 106.593 678.702C126.194 639.506 159.295 596.669 203.297 552.79C291.299 465.032 422.88 373.132 577.181 297.896C731.481 222.659 879.276 178.336 993.489 167.492C1050.6 162.071 1099.3 165.02 1136.23 176.654C1173.15 188.289 1198.27 208.603 1208.26 237.898C1218.24 267.193 1212.15 302.729 1192.55 341.925C1172.95 381.121 1139.84 423.959 1095.84 467.838C1007.84 555.595 876.26 647.495 721.959 722.732C567.659 797.969 419.864 842.292 305.65 853.135C248.543 858.557 199.838 855.608 162.915 843.973C125.991 832.339 100.866 812.024 90.8822 782.729Z" stroke="#678BFF" stroke-width="0.268684"/>
<path d="M92.9901 791.227C82.7861 762.103 88.6285 726.527 107.967 687.111C127.305 647.697 160.131 604.461 203.86 560.038C291.317 471.192 422.366 377.617 576.277 300.378C730.188 223.139 877.809 176.865 992.057 164.486C1049.18 158.296 1097.96 160.582 1135 171.701C1172.04 182.822 1197.34 202.771 1207.54 231.895C1217.75 261.019 1211.91 296.595 1192.57 336.011C1173.23 375.425 1140.4 418.661 1096.67 463.084C1009.22 551.93 878.168 645.504 724.257 722.744C570.346 799.983 422.725 846.257 308.477 858.636C251.352 864.825 202.578 862.54 165.535 851.42C128.49 840.3 103.194 820.351 92.9901 791.227Z" stroke="#678BFF" stroke-width="0.268684"/>
<path d="M95.2367 799.732C84.8139 770.781 90.4061 735.168 109.48 695.536C128.554 655.904 161.1 612.273 204.553 567.308C291.456 477.378 421.958 382.132 575.462 302.892C728.966 223.652 876.396 175.426 990.665 161.509C1047.8 154.55 1096.64 156.17 1133.8 166.773C1170.96 177.377 1196.42 196.959 1206.84 225.91C1217.27 254.861 1211.67 290.474 1192.6 330.106C1173.53 369.738 1140.98 413.369 1097.53 458.334C1010.62 548.264 880.121 643.51 726.617 722.75C573.113 801.991 425.683 850.216 311.414 864.133C254.279 871.092 205.441 869.472 168.283 858.869C131.123 848.265 105.659 828.683 95.2367 799.732Z" stroke="#678BFF" stroke-width="0.268684"/>
<path d="M97.6257 808.243C86.9861 779.468 92.3283 743.82 111.136 703.973C129.944 664.128 162.208 620.104 205.379 574.598C291.719 483.588 421.661 386.674 574.74 305.435C727.819 224.195 875.041 174.017 989.317 158.56C1046.46 150.831 1095.35 151.784 1132.62 161.869C1169.89 171.955 1195.52 191.167 1206.16 219.943C1216.8 248.718 1211.45 284.366 1192.65 324.213C1173.84 364.058 1141.57 408.082 1098.4 453.588C1012.06 544.598 882.122 641.512 729.042 722.751C575.963 803.991 428.741 854.169 314.465 869.626C257.327 877.355 208.432 876.402 171.163 866.317C133.892 856.231 108.265 837.018 97.6257 808.243Z" stroke="#678BFF" stroke-width="0.268684"/>
<path d="M100.153 816.759C89.2988 788.162 94.391 752.481 112.931 712.423C131.471 672.366 163.45 627.951 206.335 581.907C292.103 489.821 421.47 391.244 574.107 308.007C726.743 224.77 873.74 172.639 988.009 155.639C1045.14 147.14 1094.09 147.424 1131.46 156.989C1168.84 166.555 1194.63 185.396 1205.48 213.993C1216.34 242.591 1211.24 278.271 1192.7 318.329C1174.16 358.387 1142.19 402.802 1099.3 448.845C1013.53 540.931 884.166 639.509 731.529 722.746C578.892 805.983 431.896 858.114 317.627 875.113C260.492 883.613 211.546 883.328 174.171 873.763C136.795 864.197 111.008 845.356 100.153 816.759Z" stroke="#678BFF" stroke-width="0.268684"/>
</g>
</svg>
