<svg width="1512" height="1512" viewBox="0 0 1512 1512" fill="none" xmlns="http://www.w3.org/2000/svg">
<circle cx="756" cy="756" r="756" fill="white"/>
<g filter="url(#filter0_d_34_55)">
<path d="M776.746 889.94C780.498 886.697 783.448 884.039 785.597 881.968C787.786 879.858 789.603 877.67 791.049 875.403C792.495 873.136 793.218 870.87 793.218 868.603C793.218 866.258 792.651 864.422 791.518 863.093C790.424 861.764 788.685 861.1 786.301 861.1C783.995 861.1 782.198 861.842 780.908 863.327C779.657 864.773 778.993 866.727 778.915 869.189H772.467C772.584 864.734 773.913 861.334 776.453 858.99C779.032 856.606 782.295 855.414 786.242 855.414C790.502 855.414 793.824 856.586 796.207 858.931C798.63 861.276 799.842 864.402 799.842 868.31C799.842 871.124 799.119 873.84 797.673 876.458C796.266 879.037 794.566 881.363 792.573 883.434C790.619 885.466 788.118 887.83 785.07 890.527L782.432 892.871H801.014V898.44H772.525V893.575L776.746 889.94ZM806.885 877.103C806.885 870.342 808.018 865.067 810.285 861.276C812.59 857.446 816.537 855.531 822.126 855.531C827.714 855.531 831.641 857.446 833.908 861.276C836.214 865.067 837.367 870.342 837.367 877.103C837.367 883.942 836.214 889.296 833.908 893.164C831.641 896.994 827.714 898.909 822.126 898.909C816.537 898.909 812.59 896.994 810.285 893.164C808.018 889.296 806.885 883.942 806.885 877.103ZM830.801 877.103C830.801 873.937 830.586 871.261 830.156 869.072C829.766 866.884 828.945 865.106 827.694 863.738C826.444 862.331 824.588 861.628 822.126 861.628C819.664 861.628 817.807 862.331 816.557 863.738C815.306 865.106 814.466 866.884 814.036 869.072C813.645 871.261 813.45 873.937 813.45 877.103C813.45 880.386 813.645 883.141 814.036 885.368C814.427 887.596 815.248 889.393 816.498 890.761C817.788 892.129 819.664 892.813 822.126 892.813C824.588 892.813 826.444 892.129 827.694 890.761C828.984 889.393 829.824 887.596 830.215 885.368C830.606 883.141 830.801 880.386 830.801 877.103ZM848.13 889.94C851.882 886.697 854.833 884.039 856.982 881.968C859.17 879.858 860.988 877.67 862.433 875.403C863.879 873.136 864.602 870.87 864.602 868.603C864.602 866.258 864.036 864.422 862.902 863.093C861.808 861.764 860.069 861.1 857.685 861.1C855.38 861.1 853.582 861.842 852.292 863.327C851.042 864.773 850.378 866.727 850.299 869.189H843.851C843.969 864.734 845.297 861.334 847.837 858.99C850.417 856.606 853.68 855.414 857.627 855.414C861.886 855.414 865.208 856.586 867.592 858.931C870.015 861.276 871.226 864.402 871.226 868.31C871.226 871.124 870.503 873.84 869.057 876.458C867.651 879.037 865.951 881.363 863.958 883.434C862.004 885.466 859.503 887.83 856.454 890.527L853.816 892.871H872.399V898.44H843.91V893.575L848.13 889.94ZM877.449 890.116V885.075L897.145 856.821H905.234V884.313H910.685V890.116H905.234V899.026H898.669V890.116H877.449ZM898.962 863.621L885.128 884.313H898.962V863.621ZM939.012 871.534C940.145 869.971 941.689 868.701 943.643 867.724C945.636 866.708 947.844 866.2 950.266 866.2C953.119 866.2 955.699 866.884 958.004 868.251C960.31 869.619 962.127 871.573 963.456 874.113C964.784 876.614 965.449 879.487 965.449 882.73C965.449 885.974 964.784 888.885 963.456 891.465C962.127 894.005 960.29 895.998 957.946 897.444C955.64 898.851 953.08 899.554 950.266 899.554C947.765 899.554 945.538 899.065 943.584 898.088C941.669 897.111 940.145 895.861 939.012 894.337V899.026H932.329V855.648H939.012V871.534ZM958.649 882.73C958.649 880.503 958.18 878.588 957.242 876.986C956.343 875.344 955.132 874.113 953.608 873.293C952.123 872.433 950.521 872.003 948.801 872.003C947.121 872.003 945.518 872.433 943.994 873.293C942.509 874.152 941.298 875.403 940.36 877.044C939.461 878.686 939.012 880.62 939.012 882.848C939.012 885.075 939.461 887.029 940.36 888.709C941.298 890.351 942.509 891.601 943.994 892.461C945.518 893.321 947.121 893.751 948.801 893.751C950.521 893.751 952.123 893.321 953.608 892.461C955.132 891.562 956.343 890.273 957.242 888.592C958.18 886.912 958.649 884.958 958.649 882.73ZM1001.13 866.727L981.319 914.209H974.402L980.967 898.499L968.247 866.727H975.692L984.777 891.347L994.215 866.727H1001.13ZM1043.85 899.026L1028.08 880.796V899.026H1021.4V858.286H1028.08V876.868L1043.91 858.286H1052.29L1034.59 878.686L1052.59 899.026H1043.85ZM1071.92 899.437C1069.19 899.437 1066.72 898.968 1064.53 898.03C1062.35 897.053 1060.63 895.685 1059.38 893.927C1058.13 892.168 1057.5 890.116 1057.5 887.772H1064.65C1064.81 889.53 1065.49 890.976 1066.7 892.109C1067.95 893.243 1069.69 893.809 1071.92 893.809C1074.23 893.809 1076.02 893.262 1077.31 892.168C1078.6 891.035 1079.25 889.589 1079.25 887.83C1079.25 886.462 1078.84 885.349 1078.02 884.489C1077.24 883.629 1076.24 882.965 1075.03 882.496C1073.86 882.027 1072.21 881.519 1070.1 880.972C1067.45 880.268 1065.28 879.565 1063.6 878.861C1061.96 878.119 1060.55 876.986 1059.38 875.462C1058.2 873.937 1057.62 871.905 1057.62 869.365C1057.62 867.02 1058.2 864.969 1059.38 863.21C1060.55 861.452 1062.19 860.103 1064.3 859.166C1066.41 858.228 1068.85 857.759 1071.63 857.759C1075.57 857.759 1078.8 858.755 1081.3 860.748C1083.84 862.702 1085.25 865.399 1085.52 868.838H1078.13C1078.02 867.353 1077.31 866.083 1076.02 865.027C1074.73 863.972 1073.03 863.445 1070.92 863.445C1069.01 863.445 1067.45 863.933 1066.23 864.91C1065.02 865.887 1064.42 867.294 1064.42 869.131C1064.42 870.381 1064.79 871.417 1065.53 872.238C1066.31 873.019 1067.29 873.644 1068.46 874.113C1069.63 874.582 1071.24 875.09 1073.27 875.637C1075.97 876.38 1078.15 877.122 1079.83 877.865C1081.55 878.607 1083 879.76 1084.17 881.323C1085.38 882.848 1085.99 884.899 1085.99 887.478C1085.99 889.55 1085.42 891.504 1084.29 893.34C1083.2 895.177 1081.57 896.662 1079.42 897.795C1077.31 898.89 1074.81 899.437 1071.92 899.437ZM1100.56 863.679V875.637H1114.63V881.089H1100.56V893.575H1116.38V899.026H1093.87V858.228H1116.38V863.679H1100.56ZM1153.1 870.42C1153.1 872.492 1152.62 874.446 1151.64 876.282C1150.66 878.119 1149.1 879.624 1146.95 880.796C1144.8 881.929 1142.04 882.496 1138.68 882.496H1131.3V899.026H1124.61V858.286H1138.68C1141.81 858.286 1144.45 858.833 1146.6 859.928C1148.79 860.983 1150.41 862.429 1151.46 864.265C1152.56 866.102 1153.1 868.154 1153.1 870.42ZM1138.68 877.044C1141.22 877.044 1143.12 876.478 1144.37 875.344C1145.62 874.172 1146.25 872.531 1146.25 870.42C1146.25 865.965 1143.72 863.738 1138.68 863.738H1131.3V877.044H1138.68ZM1181.39 858.286V899.026H1174.7V858.286H1181.39ZM1216.48 858.286V863.738H1205.64V899.026H1198.95V863.738H1188.05V858.286H1216.48ZM1245.05 878.099C1247.24 878.49 1249.1 879.643 1250.62 881.558C1252.15 883.473 1252.91 885.642 1252.91 888.065C1252.91 890.136 1252.36 892.012 1251.27 893.692C1250.21 895.333 1248.67 896.643 1246.64 897.62C1244.6 898.557 1242.24 899.026 1239.54 899.026H1223.25V858.286H1238.78C1241.56 858.286 1243.94 858.755 1245.93 859.693C1247.93 860.631 1249.43 861.901 1250.45 863.503C1251.46 865.067 1251.97 866.825 1251.97 868.779C1251.97 871.124 1251.35 873.078 1250.1 874.641C1248.85 876.204 1247.16 877.357 1245.05 878.099ZM1229.93 875.403H1238.2C1240.38 875.403 1242.08 874.914 1243.3 873.937C1244.55 872.921 1245.17 871.476 1245.17 869.6C1245.17 867.763 1244.55 866.337 1243.3 865.321C1242.08 864.265 1240.38 863.738 1238.2 863.738H1229.93V875.403ZM1238.96 893.575C1241.22 893.575 1243 893.028 1244.29 891.933C1245.58 890.839 1246.23 889.315 1246.23 887.361C1246.23 885.368 1245.54 883.785 1244.18 882.613C1242.81 881.441 1240.99 880.855 1238.72 880.855H1229.93V893.575H1238.96Z" fill="url(#paint0_linear_34_55)"/>
<path d="M1236.49 639.335L1254.89 618.706L1236.49 598.356L1221.72 598.356L1240.12 618.706L1221.72 639.335L1236.49 639.335Z" fill="url(#paint1_linear_34_55)"/>
<path d="M1199.69 598.633L1218.09 618.984L1199.69 639.613L1214.47 639.613L1232.87 618.984L1214.47 598.634L1199.69 598.633Z" fill="url(#paint2_linear_34_55)"/>
<path d="M1065.61 639.336V598.635H1192.45L1210.85 618.985L1192.45 639.614H1171.82V807.992H1121.08V639.336H1065.61Z" fill="url(#paint3_linear_34_55)"/>
<path d="M253.805 653.602V636.979L304.835 601.248V617.87L253.805 653.602Z" fill="url(#paint4_linear_34_55)"/>
<path d="M304.835 625.737L253.805 661.469V678.092L304.835 642.36V625.737Z" fill="url(#paint5_linear_34_55)"/>
<path d="M304.835 650.228L253.805 685.959V808.878H304.835V650.228Z" fill="url(#paint6_linear_34_55)"/>
<path d="M478.196 808.878H529.226V599.385H478.196V729.199L392.847 599.385H341.816V808.878H392.847V679.66L478.196 808.878Z" fill="url(#paint7_linear_34_55)"/>
<path d="M702.596 640.269V599.385H566.217V808.878H617.247V724.126H681.109V684.435H617.247V640.269H702.596Z" fill="url(#paint8_linear_34_55)"/>
<path d="M780.447 682.645V640.269H857.739V599.385H729.417V808.878H857.739V767.994H780.447V722.037H848.786V682.645H780.447Z" fill="url(#paint9_linear_34_55)"/>
<path d="M925.485 803.506C937.621 808.48 951.349 810.967 966.668 810.967C982.385 810.967 996.013 808.082 1007.55 802.312C1019.09 796.543 1027.84 788.784 1033.81 779.035C1039.98 769.287 1043.06 758.444 1043.06 746.507C1043.06 733.973 1039.98 723.728 1033.81 715.77C1027.65 707.812 1020.28 701.744 1011.73 697.566C1003.37 693.388 992.432 689.011 978.903 684.435C965.375 680.058 955.427 675.98 949.061 672.2C942.695 668.42 939.511 663.148 939.511 656.383C939.511 650.216 941.401 645.541 945.181 642.358C948.961 638.975 953.935 637.284 960.103 637.284C967.265 637.284 973.134 639.274 977.71 643.253C982.285 647.033 984.772 652.305 985.17 659.069H1040.38C1039.38 639.373 1031.82 624.054 1017.7 613.112C1003.57 601.971 984.971 596.4 961.893 596.4C939.213 596.4 920.81 601.971 906.685 613.112C892.559 624.054 885.497 639.274 885.497 658.771C885.497 671.901 888.58 682.545 894.748 690.702C900.915 698.859 908.276 705.026 916.831 709.204C925.386 713.382 936.428 717.56 949.956 721.738C959.307 724.523 966.469 727.01 971.443 729.199C976.615 731.387 980.893 734.172 984.275 737.555C987.856 740.937 989.646 745.214 989.646 750.387C989.646 756.554 987.458 761.428 983.081 765.01C978.704 768.392 972.736 770.083 965.176 770.083C957.815 770.083 951.846 768.093 947.27 764.114C942.695 759.936 940.009 753.968 939.213 746.209H884.9C885.298 759.936 889.078 771.674 896.24 781.423C903.601 791.171 913.35 798.532 925.485 803.506Z" fill="url(#paint10_linear_34_55)"/>
</g>
<defs>
<filter id="filter0_d_34_55" x="252.34" y="596.4" width="1014.7" height="330.913" filterUnits="userSpaceOnUse" color-interpolation-filters="sRGB">
<feFlood flood-opacity="0" result="BackgroundImageFix"/>
<feColorMatrix in="SourceAlpha" type="matrix" values="0 0 0 0 0 0 0 0 0 0 0 0 0 0 0 0 0 0 127 0" result="hardAlpha"/>
<feOffset dx="4.39266" dy="5.85688"/>
<feGaussianBlur stdDeviation="2.92844"/>
<feComposite in2="hardAlpha" operator="out"/>
<feColorMatrix type="matrix" values="0 0 0 0 0 0 0 0 0 0 0 0 0 0 0 0 0 0 0.25 0"/>
<feBlend mode="normal" in2="BackgroundImageFix" result="effect1_dropShadow_34_55"/>
<feBlend mode="normal" in="SourceGraphic" in2="effect1_dropShadow_34_55" result="shape"/>
</filter>
<linearGradient id="paint0_linear_34_55" x1="1380.71" y1="780.832" x2="626.594" y2="974.725" gradientUnits="userSpaceOnUse">
<stop stop-color="#37207A"/>
<stop offset="1" stop-color="#377BD9"/>
</linearGradient>
<linearGradient id="paint1_linear_34_55" x1="253.805" y1="811.22" x2="1031.07" y2="621.221" gradientUnits="userSpaceOnUse">
<stop stop-color="#361F79"/>
<stop offset="0.38" stop-color="#384092"/>
<stop offset="1" stop-color="#447DCC"/>
</linearGradient>
<linearGradient id="paint2_linear_34_55" x1="253.805" y1="811.22" x2="1031.07" y2="621.221" gradientUnits="userSpaceOnUse">
<stop stop-color="#361F79"/>
<stop offset="0.38" stop-color="#384092"/>
<stop offset="1" stop-color="#447DCC"/>
</linearGradient>
<linearGradient id="paint3_linear_34_55" x1="253.805" y1="811.22" x2="1031.07" y2="621.221" gradientUnits="userSpaceOnUse">
<stop stop-color="#361F79"/>
<stop offset="0.38" stop-color="#384092"/>
<stop offset="1" stop-color="#447DCC"/>
</linearGradient>
<linearGradient id="paint4_linear_34_55" x1="253.805" y1="811.22" x2="1031.07" y2="621.221" gradientUnits="userSpaceOnUse">
<stop stop-color="#361F79"/>
<stop offset="0.38" stop-color="#384092"/>
<stop offset="1" stop-color="#447DCC"/>
</linearGradient>
<linearGradient id="paint5_linear_34_55" x1="253.805" y1="811.22" x2="1031.07" y2="621.221" gradientUnits="userSpaceOnUse">
<stop stop-color="#361F79"/>
<stop offset="0.38" stop-color="#384092"/>
<stop offset="1" stop-color="#447DCC"/>
</linearGradient>
<linearGradient id="paint6_linear_34_55" x1="253.805" y1="811.22" x2="1031.07" y2="621.221" gradientUnits="userSpaceOnUse">
<stop stop-color="#361F79"/>
<stop offset="0.38" stop-color="#384092"/>
<stop offset="1" stop-color="#447DCC"/>
</linearGradient>
<linearGradient id="paint7_linear_34_55" x1="253.805" y1="811.22" x2="1031.07" y2="621.221" gradientUnits="userSpaceOnUse">
<stop stop-color="#361F79"/>
<stop offset="0.38" stop-color="#384092"/>
<stop offset="1" stop-color="#447DCC"/>
</linearGradient>
<linearGradient id="paint8_linear_34_55" x1="253.805" y1="811.22" x2="1031.07" y2="621.221" gradientUnits="userSpaceOnUse">
<stop stop-color="#361F79"/>
<stop offset="0.38" stop-color="#384092"/>
<stop offset="1" stop-color="#447DCC"/>
</linearGradient>
<linearGradient id="paint9_linear_34_55" x1="253.805" y1="811.22" x2="1031.07" y2="621.221" gradientUnits="userSpaceOnUse">
<stop stop-color="#361F79"/>
<stop offset="0.38" stop-color="#384092"/>
<stop offset="1" stop-color="#447DCC"/>
</linearGradient>
<linearGradient id="paint10_linear_34_55" x1="253.805" y1="811.22" x2="1031.07" y2="621.221" gradientUnits="userSpaceOnUse">
<stop stop-color="#361F79"/>
<stop offset="0.38" stop-color="#384092"/>
<stop offset="1" stop-color="#447DCC"/>
</linearGradient>
</defs>
</svg>
