<?xml version="1.0" standalone="no"?>
<!DOCTYPE svg PUBLIC "-//W3C//DTD SVG 20010904//EN"
 "http://www.w3.org/TR/2001/REC-SVG-20010904/DTD/svg10.dtd">
<svg version="1.0" xmlns="http://www.w3.org/2000/svg"
 width="150.000000pt" height="150.000000pt" viewBox="0 0 150.000000 150.000000"
 preserveAspectRatio="xMidYMid meet">
<metadata>
Created by potrace 1.14, written by Peter Selinger 2001-2017
</metadata>
<g transform="translate(0.000000,150.000000) scale(0.100000,-0.100000)"
fill="#000000" stroke="none">
<path d="M384 1101 c-2 -2 -4 -154 -4 -336 l0 -332 85 -1 85 -2 1 73 c1 39 1
87 1 105 -2 38 -32 34 266 34 l212 0 1 24 c1 13 1 33 1 44 0 11 0 33 -1 49
l-1 30 -212 0 c-117 0 -225 0 -239 1 l-27 0 0 85 0 85 269 0 270 0 -3 72 -3
73 -348 0 c-192 0 -350 -2 -353 -4z"/>
</g>
</svg>
